<svg width="22" height="18" viewBox="0 0 22 18" fill="none" xmlns="http://www.w3.org/2000/svg">
<path d="M19 7V4.2C19 3.0799 19 2.51984 18.782 2.09202C18.5903 1.71569 18.2843 1.40973 17.908 1.21799C17.4802 1 16.9201 1 15.8 1H4.2C3.0799 1 2.51984 1 2.09202 1.21799C1.71569 1.40973 1.40973 1.71569 1.21799 2.09202C1 2.51984 1 3.0799 1 4.2V13.8C1 14.9201 1 15.4802 1.21799 15.908C1.40973 16.2843 1.71569 16.5903 2.09202 16.782C2.51984 17 3.0799 17 4.2 17H15.8C16.9201 17 17.4802 17 17.908 16.782C18.2843 16.5903 18.5903 16.2843 18.782 15.908C19 15.4802 19 14.9201 19 13.8V11.5M14.6 11H19.4C19.9601 11 20.2401 11 20.454 10.891C20.6422 10.7951 20.7951 10.6422 20.891 10.454C21 10.2401 21 9.96005 21 9.4V8.6C21 8.03995 21 7.75992 20.891 7.54601C20.7951 7.35785 20.6422 7.20487 20.454 7.10899C20.2401 7 19.9601 7 19.4 7H14.6C14.0399 7 13.7599 7 13.546 7.10899C13.3578 7.20487 13.2049 7.35785 13.109 7.54601C13 7.75992 13 8.03995 13 8.6V9.4C13 9.96005 13 10.2401 13.109 10.454C13.2049 10.6422 13.3578 10.7951 13.546 10.891C13.7599 11 14.0399 11 14.6 11Z" stroke="white" stroke-width="1.5"/>
</svg>
