<svg width="27" height="20" fill="none" xmlns="http://www.w3.org/2000/svg"><path d="M22.857 1.659A22.702 22.702 0 0 0 17.36.003a.086.086 0 0 0-.089.04c-.236.41-.5.945-.684 1.367a21.145 21.145 0 0 0-6.173 0A13.666 13.666 0 0 0 9.721.043a.086.086 0 0 0-.088-.042 22.686 22.686 0 0 0-5.496 1.657.079.079 0 0 0-.036.03C.601 6.77-.359 11.728.111 16.623a.088.088 0 0 0 .036.061 22.646 22.646 0 0 0 6.742 3.311.09.09 0 0 0 .094-.029c.52-.688.983-1.416 1.38-2.18a.082.082 0 0 0-.047-.116c-.726-.27-1.43-.597-2.106-.976a.084.084 0 0 1-.042-.067.082.082 0 0 1 .033-.072c.142-.103.284-.21.419-.318a.085.085 0 0 1 .088-.011c4.417 1.96 9.202 1.96 13.568 0a.085.085 0 0 1 .089.01c.135.108.275.216.418.32a.084.084 0 0 1 .035.07.083.083 0 0 1-.042.068c-.672.383-1.372.706-2.107.975a.084.084 0 0 0-.055.082.08.08 0 0 0 .01.034c.404.764.868 1.49 1.377 2.18a.087.087 0 0 0 .095.031 22.569 22.569 0 0 0 6.752-3.312.085.085 0 0 0 .036-.06c.562-5.66-.943-10.577-3.993-14.934a.067.067 0 0 0-.034-.031ZM9.023 13.642c-1.33 0-2.427-1.187-2.427-2.644 0-1.458 1.076-2.644 2.427-2.644 1.361 0 2.448 1.196 2.426 2.644 0 1.458-1.075 2.644-2.426 2.644Zm8.971 0c-1.33 0-2.426-1.187-2.426-2.644 0-1.458 1.074-2.644 2.426-2.644 1.362 0 2.448 1.196 2.427 2.644 0 1.458-1.064 2.644-2.427 2.644Z" fill="#fff"/></svg>